<?xml version="1.0" encoding="utf-8"?>
<!-- Generator: Adobe Illustrator 25.2.3, SVG Export Plug-In . SVG Version: 6.00 Build 0)  -->
<svg version="1.1" id="Lag_1" xmlns="http://www.w3.org/2000/svg" xmlns:xlink="http://www.w3.org/1999/xlink" x="0px" y="0px"
	 viewBox="0 0 842.4 263.9" style="enable-background:new 0 0 842.4 263.9;" xml:space="preserve">
<style type="text/css">
	.st0{fill:#B2CEDE;}
	.st1{fill:#5FA4DA;}
	.st2{fill:#648DAA;}
	.st3{fill:#1D71B8;}
	.st4{fill:#1C3E56;}
</style>
<path class="st0" d="M451.9,36.4c-58.9,6-131.3,5.3-170.3,4.3c-16.6-0.4-33.1-2.3-49.3-5.6c-9.5-1.9-18.8-3.5-28-4.8l0,0l40.3-5.9
	c0.3,0,0.7-0.1,1-0.1c18.7-1.6,37.4-2.4,56.2-2.4c8.8,0,17.7,0.2,26.5,0.5h0.4l0.2,0C370.4,24.1,411.1,28.9,451.9,36.4z"/>
<path class="st0" d="M842.4,31.9c0,0-21.8,15.3-141.2,5.4c-43.3-3.6-83.3-5.3-116.7-6c0,0,12.1-5.1,37-9.4c2.3-0.4,4.7-0.8,7.2-1.2
	c26-3.9,63.5-6.5,113.5-2.8h0.3l-0.3,0.1c2.2,0.2,4.4,0.3,6.6,0.5c0.8,0.1,1.6,0.1,2.3,0.2c1.8,0.2,3.6,0.3,5.4,0.5
	c0.5,0,0.9,0.1,1.4,0.1c4.7,0.5,9.4,1,14.1,1.5c0.3,0,0.6,0.1,0.9,0.1c0.2,0,0.4,0,0.6,0.1c0.3,0,0.6,0.1,0.8,0.1
	c1.2,0.1,2.4,0.3,3.6,0.4c0.2,0,0.4,0,0.6,0.1c10.7,1.3,21.4,2.8,32,4.5c0.8,0.1,1.5,0.2,2.3,0.4c1.3,0.2,2.6,0.4,3.9,0.6
	c1.2,0.2,2.4,0.4,3.7,0.6c3.4,0.6,6.7,1.2,10.1,1.8c0.4,0.1,0.8,0.2,1.2,0.2C835.2,30.5,838.8,31.2,842.4,31.9z"/>
<path class="st1" d="M777.9,21.5c-11.9-1.4-23.8-2.6-35.7-3.5l0.3-0.1C754.4,18.9,766.2,20.1,777.9,21.5z"/>
<path class="st2" d="M245.6,24.3c-0.3,0-0.7,0.1-1,0.1l-40.3,5.9l0,0c-0.3,0-0.6-0.1-0.9-0.1C91.1,13.8,0.5,33.3,0.5,33.3V19
	c80.9-28.2,162.3-9.8,183-4.2c8,2.2,16.1,4,24.3,5.5C220.3,22.5,232.9,23.9,245.6,24.3z"/>
<path class="st2" d="M451.9,36.4L451.9,36.4z"/>
<path class="st2" d="M842.4,4.5v27.4c-21.2-4.3-42.5-7.7-63.9-10.3c-0.2,0-0.4-0.1-0.6-0.1c-11.7-1.4-23.5-2.6-35.4-3.6l17-3.5
	c3.8-0.8,7.4-1.9,11-3.4c10.6-4.4,21.7-7.6,33-9.5C816.5-0.5,829.8,0.6,842.4,4.5z"/>
<path class="st3" d="M777.9,21.5c-11.9-1.4-23.8-2.6-35.7-3.5l0.3-0.1C754.4,18.9,766.2,20.1,777.9,21.5z"/>
<path class="st4" d="M842.4,31.9v232H0.5V33.3c0,0,90.6-19.5,202.9-3.1c0.3,0,0.6,0.1,0.9,0.1c9.2,1.3,18.5,2.9,28,4.8
	c16.2,3.3,32.7,5.2,49.3,5.6c39,1,111.4,1.7,170.3-4.3c0.1,0,0.3,0,0.4,0.1c7-0.7,13.8-1.5,20.3-2.4c13-1.8,26.2-2.8,39.3-3
	c17-0.3,42-0.5,72.6,0.2c33.4,0.7,73.4,2.4,116.7,6C820.6,47.2,842.4,31.9,842.4,31.9z"/>
<path class="st2" d="M676.3,16.1L676.3,16.1z"/>
<path class="st2" d="M628.7,20.7c-2.5,0.4-4.9,0.8-7.2,1.2c-24.9,4.3-37,9.4-37,9.4c-30.6-0.7-55.6-0.5-72.6-0.2
	c-13.1,0.2-26.3,1.2-39.3,3c-6.5,0.9-13.3,1.7-20.3,2.4c-0.1-0.1-0.3-0.1-0.4-0.1c-40.8-7.5-81.5-12.3-123-14l-0.2,0
	C510.3-22.4,628.7,20.7,628.7,20.7z"/>
</svg>
